<svg xmlns="http://www.w3.org/2000/svg" width="512" height="512" viewBox="0 0 512 512">
  <defs>
    <linearGradient id="bg" x1="0%" y1="0%" x2="100%" y2="100%">
      <stop offset="0%" style="stop-color:#7c3aed;stop-opacity:1" />
      <stop offset="100%" style="stop-color:#3b82f6;stop-opacity:1" />
    </linearGradient>
  </defs>
  <rect width="512" height="512" rx="64" fill="url(#bg)"/>
  <!-- Book icon -->
  <g transform="translate(80,80)">
    <path d="M20 20 L176 20 Q176 20 176 20 L176 320 Q176 350 146 350 L50 350 Q20 350 20 320 Z" fill="none" stroke="white" stroke-width="12" stroke-linejoin="round"/>
    <path d="M176 20 L332 20 Q332 20 332 20 L332 320 Q332 350 302 350 L206 350 Q176 350 176 320 Z" fill="none" stroke="white" stroke-width="12" stroke-linejoin="round"/>
    <line x1="98" y1="90" x2="98" y2="270" stroke="white" stroke-width="8" stroke-linecap="round"/>
    <line x1="254" y1="90" x2="254" y2="270" stroke="white" stroke-width="8" stroke-linecap="round"/>
    <!-- Code brackets -->
    <text x="176" y="430" text-anchor="middle" fill="white" font-size="80" font-family="monospace" font-weight="bold">&lt;/&gt;</text>
  </g>
</svg>
